PathFileType	4	(X/Y/Z)	/Users/mathieubourgeois/Desktop/Analyse/Traitement/Sujet_03/Transformed_Static_Sujet_03_Tpose.trc
DataRate	CameraRate	NumFrames	NumMarkers	Units	OrigDataRate	OrigDataStartFrame	OrigNumFrames
120.000000	120.000000	5	36	mm	120.000000	91	244
Frame#	Time	RFHD			LFHD			RBHD			LBHD			C7			CLAV			RSHO			LSHO			STRN			T10			RBWT			LBWT			RFWT			LFWT			RKNI			LKNI			RKNE			LKNE			LANI			RANI			LANE			RANE			LTOE			RTOE			LHEE			RHEE			RHUM			LHUM			RRAD			LRAD			RWRA			RWRB			LWRA			LWRB			RCAR			LCAR			
		X1	Y1	Z1	X2	Y2	Z2	X3	Y3	Z3	X4	Y4	Z4	X5	Y5	Z5	X6	Y6	Z6	X7	Y7	Z7	X8	Y8	Z8	X9	Y9	Z9	X10	Y10	Z10	X11	Y11	Z11	X12	Y12	Z12	X13	Y13	Z13	X14	Y14	Z14	X15	Y15	Z15	X16	Y16	Z16	X17	Y17	Z17	X18	Y18	Z18	X19	Y19	Z19	X20	Y20	Z20	X21	Y21	Z21	X22	Y22	Z22	X23	Y23	Z23	X24	Y24	Z24	X25	Y25	Z25	X26	Y26	Z26	X27	Y27	Z27	X28	Y28	Z28	X29	Y29	Z29	X30	Y30	Z30	X31	Y31	Z31	X32	Y32	Z32	X33	Y33	Z33	X34	Y34	Z34	X35	Y35	Z35	X36	Y36	Z36	

92	0.7583333333333333	-730.9529418945312	1772.75634765625	298.9075927734373	-575.6384887695312	1768.1162109375	291.6063232421873	-737.376220703125	1734.229614257812	170.8510284423826	-589.4436645507812	1732.909545898438	146.7210998535154	-651.8960571289062	1575.124755859375	133.2677612304686	-648.7285766601562	1505.025634765625	266.7661743164061	-804.7614135742188	1589.199829101562	158.8316802978514	-497.443115234375	1593.795532226562	140.2063598632811	-646.3110961914062	1338.088989257812	314.2055358886718	-648.9450073242188	1332.589233398438	94.6207199096678	-720.034423828125	1090.653198242188	122.2739944458006	-600.065673828125	1089.341064453125	127.6198806762694	-791.5922241210938	1055.80810546875	284.5105590820311	-538.3883056640625	1038.356567382812	293.1158142089843	-731.0958251953125	478.8197326660156	167.9877471923827	-591.4803466796875	480.1406555175781	156.0127410888671	-840.8687133789062	533.3432006835938	172.7797241210936	-487.4792785644531	525.3180541992188	165.6804199218749	-586.0941162109375	94.91107177734376	139.7606201171874	-730.0482788085938	98.18727874755861	160.019073486328	-496.498046875	75.18621826171876	120.0464172363281	-816.6289672851562	82.26436614990236	130.9630889892577	-522.0999755859375	31.83681297302248	326.9615173339843	-797.5611572265625	32.40373229980471	341.7375488281249	-544.10302734375	38.84372711181641	61.55364227294915	-766.8445434570312	39.36253738403321	74.04302215576162	-1093.422119140625	1494.5205078125	207.6743011474607	-200.5739135742188	1506.420288085938	216.4958953857421	-1107.760986328125	1527.030639648438	137.7955780029295	-194.1193237304688	1538.365844726562	143.5436096191405	-1362.649536132812	1615.984985351562	176.7413635253904	-1371.180419921875	1555.20654296875	127.6785125732419	57.08446502685545	1600.446166992188	173.9241180419921	67.15979766845702	1529.341674804688	147.9483795166015	-1470.501342773438	1603.208984375	122.1042327880857	166.8700103759765	1573.64013671875	157.4955444335937	
93	0.7666666666666666	-730.9347534179688	1772.738403320312	298.9587097167966	-575.6428833007812	1768.109130859375	291.6418457031248	-737.3858642578125	1734.217163085938	170.889694213867	-589.4546508789062	1732.910278320312	146.7475433349607	-651.9087524414062	1575.120361328125	133.3136138916014	-648.73291015625	1505.026245117188	266.8182678222655	-804.770751953125	1589.19580078125	158.8739776611326	-497.4563903808594	1593.801147460938	140.244903564453	-646.2765502929688	1338.077880859375	314.2438049316405	-648.9404907226562	1332.590698242188	94.64247894287092	-720.007080078125	1090.652465820312	122.3114776611327	-600.06982421875	1089.33154296875	127.6469802856444	-791.5662841796875	1055.797485351562	284.5460510253905	-538.380615234375	1038.344970703125	293.1361389160155	-731.0888671875	478.8190307617188	167.9973297119139	-591.4603881835938	480.1349182128906	156.0134429931639	-840.8594360351562	533.3392333984375	172.785430908203	-487.4718627929688	525.3245849609375	165.674591064453	-586.0847778320312	94.9192581176758	139.7552947998046	-730.0394287109375	98.17826080322267	160.0026397705077	-496.4893493652344	75.1769485473633	120.0468826293945	-816.62744140625	82.28284454345705	130.9626159667968	-522.1080322265625	31.83157730102541	326.9637756347656	-797.5670776367188	32.39520645141604	341.7354431152343	-544.090576171875	38.84521865844727	61.54216384887689	-766.835205078125	39.34687423706055	74.04086303710928	-1093.4189453125	1494.538452148438	207.7759552001951	-200.5860595703125	1506.41845703125	216.5156402587889	-1107.774291992188	1527.034057617188	137.9004058837888	-194.1166381835938	1538.361328125	143.5458068847655	-1362.657958984375	1615.976196289062	176.8483886718747	-1371.190063476562	1555.187133789062	127.7743911743161	57.07943344116209	1600.4326171875	173.9155273437499	67.14820098876952	1529.319580078125	147.9518585205077	-1470.512329101562	1603.158813476562	122.1813964843747	166.8740844726562	1573.616455078125	157.5156249999999	
94	0.775	-730.942626953125	1772.737915039062	299.0019226074216	-575.6427612304688	1768.115600585938	291.6727294921873	-737.3903198242188	1734.211669921875	170.9431152343748	-589.4784545898438	1732.902954101562	146.780319213867	-651.9085083007812	1575.122192382812	133.3653106689451	-648.7196044921875	1505.014770507812	266.8552856445311	-804.7727661132812	1589.183959960938	158.928009033203	-497.4651794433594	1593.813354492188	140.2864379882811	-646.2530517578125	1338.08154296875	314.2925720214843	-648.9329833984375	1332.603271484375	94.68465423583967	-720.0032958984375	1090.650756835938	122.3870010375975	-600.0713500976562	1089.3447265625	127.6776046752928	-791.5491333007812	1055.790893554688	284.5878295898436	-538.3549194335938	1038.339599609375	293.1619567871093	-731.08349609375	478.8177490234375	167.9854278564452	-591.4651489257812	480.1430358886719	156.0154266357421	-840.8535766601562	533.3388061523438	172.8024597167967	-487.4591979980469	525.31982421875	165.6687774658202	-586.0894775390625	94.92224884033205	139.7628021240234	-730.0396728515625	98.16960906982423	160.0027465820312	-496.4944152832031	75.18117523193361	120.0409927368163	-816.6240234375	82.28079223632814	130.9651031494139	-522.0941772460938	31.83717727661135	326.9530944824218	-797.5625610351562	32.38964462280276	341.7326354980468	-544.1022338867188	38.84371948242188	61.54567718505853	-766.8467407226562	39.3534164428711	74.0264892578124	-1093.422973632812	1494.5361328125	207.8583374023435	-200.5855560302735	1506.4072265625	216.5267944335936	-1107.770385742188	1527.016967773438	137.9954376220701	-194.148666381836	1538.33935546875	143.5685424804686	-1362.677124023438	1615.956909179688	176.9769897460935	-1371.191650390625	1555.159790039062	127.882873535156	57.07531738281248	1600.412719726562	173.8979949951171	67.14299011230467	1529.292724609375	147.954132080078	-1470.511352539062	1603.130615234375	122.2753982543942	166.8739013671875	1573.58544921875	157.509536743164	
95	0.7833333333333333	-730.9498901367188	1772.747924804688	299.0585937499998	-575.6594848632812	1768.110473632812	291.7283935546873	-737.4163208007812	1734.220336914062	171.0041046142576	-589.4979248046875	1732.9091796875	146.818893432617	-651.9151000976562	1575.124877929688	133.4008026123045	-648.7144775390625	1505.018188476562	266.9185180664061	-804.77197265625	1589.16259765625	158.9914703369139	-497.470947265625	1593.821166992188	140.3107452392577	-646.2279663085938	1338.0625	314.3427734374999	-648.9453735351562	1332.613037109375	94.71824645996077	-719.9937744140625	1090.663818359375	122.411781311035	-600.0437622070312	1089.3447265625	127.7264938354491	-791.5315551757812	1055.7880859375	284.6414794921873	-538.33740234375	1038.329956054688	293.187286376953	-731.0733032226562	478.8195495605469	167.9961700439452	-591.4494018554688	480.1422424316406	156.0141448974608	-840.8396606445312	533.3358764648438	172.8167724609374	-487.4411926269531	525.3132934570312	165.6796417236327	-586.0833740234375	94.91981506347658	139.7537384033202	-730.0340576171875	98.18014526367189	160.0118865966796	-496.4883422851562	75.18081665039064	120.0467910766601	-816.6338500976562	82.28146362304689	130.9684753417968	-522.0933227539062	31.8318786621094	326.9464416503906	-797.5623168945312	32.39417648315432	341.7261352539061	-544.1004638671875	38.84405136108399	61.54463577270501	-766.848388671875	39.35023498535157	74.02948760986318	-1093.41064453125	1494.529052734375	207.963684082031	-200.6009674072266	1506.402099609375	216.5572967529296	-1107.773193359375	1527.003295898438	138.103332519531	-194.1490173339844	1538.319580078125	143.5694427490233	-1362.687255859375	1615.943725585938	177.0957946777341	-1371.199340820312	1555.149780273438	127.9800720214841	57.06847000122068	1600.38671875	173.8955993652343	67.13365936279295	1529.268676757812	147.9610290527343	-1470.50634765625	1603.112060546875	122.3908462524411	166.8705444335937	1573.546997070312	157.5139465332031	
96	0.7916666666666666	-730.9439697265625	1772.734008789062	299.1304931640623	-575.6585693359375	1768.118286132812	291.7601928710936	-737.431640625	1734.205200195312	171.0500183105467	-589.5283203125	1732.915893554688	146.8537597656248	-651.9297485351562	1575.10888671875	133.4654998779295	-648.6990966796875	1505.026123046875	266.9756469726561	-804.7799072265625	1589.160522460938	159.073516845703	-497.4850463867188	1593.813720703125	140.3485717773436	-646.2108764648438	1338.076416015625	314.3905334472655	-648.9505004882812	1332.614868164062	94.75367736816389	-719.9832153320312	1090.669555664062	122.4568481445311	-600.0501098632812	1089.348388671875	127.7592315673827	-791.5029907226562	1055.775756835938	284.660430908203	-538.299072265625	1038.329345703125	293.209747314453	-731.068603515625	478.8238525390625	168.0057525634764	-591.4432373046875	480.1459045410156	156.0178222656249	-840.831787109375	533.3497924804688	172.810836791992	-487.4385375976562	525.3218383789062	165.683120727539	-586.089111328125	94.9246063232422	139.7518768310546	-730.04296875	98.18054962158205	160.006866455078	-496.4879455566406	75.18688964843751	120.0409393310546	-816.6312866210938	82.27402496337892	130.965118408203	-522.0968017578125	31.83539199829104	326.9563903808593	-797.5626220703125	32.39666366577151	341.7257385253905	-544.1048583984375	38.85403060913087	61.53280639648431	-766.8460693359375	39.35649108886719	74.02111053466787	-1093.416381835938	1494.52734375	208.0631561279295	-200.618392944336	1506.40185546875	216.5747070312499	-1107.767822265625	1526.99462890625	138.1840209960935	-194.1471557617188	1538.319580078125	143.587188720703	-1362.692993164062	1615.9287109375	177.2129821777341	-1371.192504882812	1555.11767578125	128.0768280029294	57.06369781494138	1600.361083984375	173.9008178710937	67.12673950195311	1529.241455078125	147.9795379638671	-1470.5341796875	1603.077514648438	122.4971542358396	166.8646392822265	1573.51953125	157.519546508789	
